<svg preserveAspectRatio="none" overflow="visible" style="display: block;" width="417.572" height="329.863" viewBox="0 0 417.572 329.863" fill="none" xmlns="http://www.w3.org/2000/svg">
<path id="Vector LT" d="M407.071 0.249929C412.732 0.249889 417.321 4.83901 417.321 10.4999V319.363C417.321 325.024 412.732 329.613 407.071 329.613H126.236C120.576 329.613 115.986 325.024 115.986 319.363V244.59C115.986 240.285 113.218 236.858 109.425 234.953C105.63 233.048 100.852 232.69 96.9072 234.494C88.6131 238.288 79.5023 240.385 69.9424 240.385C31.4327 240.385 0.25 206.371 0.25 164.461C0.25003 122.55 31.4327 88.537 69.9424 88.537C79.5021 88.5371 88.6122 90.634 96.9062 94.4286C100.851 96.2335 105.63 95.8752 109.425 93.9697C113.218 92.0649 115.986 88.6378 115.986 84.3329V10.5009C115.986 4.84003 120.575 0.250984 126.236 0.250905H193.901C198.232 0.251034 201.69 2.87898 203.63 6.46673C205.568 10.0524 206.008 14.6261 204.286 18.5712C199.98 28.4345 197.569 39.4775 197.569 51.1366C197.569 92.9679 228.594 126.84 266.819 126.84C305.044 126.84 336.068 92.9678 336.068 51.1366C336.068 39.4774 333.657 28.4345 329.352 18.5712C327.629 14.6261 328.07 10.0524 330.009 6.46673C331.948 2.87914 335.406 0.251104 339.736 0.250905L407.071 0.249929Z" fill="#5C32F8" fill-opacity="0.6" stroke="white" stroke-width="0.5" stroke-miterlimit="1.41421"/>
</svg>
